<svg width="24" height="24" viewBox="0 0 30 30" fill="none" xmlns="http://www.w3.org/2000/svg">
<g clip-path="url(#clip0_20_589)">
<path d="M30.0001 9.375V23.125C30.0001 26.9162 26.9164 30 23.1251 30H6.87514C5.19764 30 3.58264 29.3887 2.32764 28.2812C1.55139 27.5963 1.47764 26.4112 2.16264 25.635C2.84889 24.8575 4.03389 24.785 4.80889 25.47C5.37889 25.9737 6.11264 26.2512 6.87514 26.2512H23.1251C24.8476 26.2512 26.2501 24.8487 26.2501 23.1262V11.2513H1.87514C0.838887 11.2513 0.00013672 10.4125 0.00013672 9.37625C0.00013672 5.58375 3.08389 2.5 6.87514 2.5H7.50014V1.875C7.50014 0.83875 8.33889 0 9.37514 0C10.4114 0 11.2501 0.83875 11.2501 1.875V2.5H18.7501V1.875C18.7501 0.83875 19.5889 0 20.6251 0C21.6614 0 22.5001 0.83875 22.5001 1.875V2.5H23.1251C26.9164 2.5 30.0001 5.58375 30.0001 9.375ZM6.24889 21.9537V20H13.1251C14.1614 20 15.0001 19.1612 15.0001 18.125C15.0001 17.0888 14.1614 16.25 13.1251 16.25H6.24889V14.2963C6.24889 13.2175 4.94514 12.6775 4.18264 13.44L0.353887 17.2687C-0.118613 17.7412 -0.118613 18.5075 0.353887 18.98L4.18264 22.8087C4.94514 23.5712 6.24889 23.0325 6.24889 21.9537Z" fill="#A5A5A5"/>
</g>
<defs>
<clipPath id="clip0_20_589">
<rect width="30" height="30" fill="white"/>
</clipPath>
</defs>
</svg>
