<svg width="24" height="24" viewBox="0 0 30 30" fill="none" xmlns="http://www.w3.org/2000/svg">
<g clip-path="url(#clip0_20_587)">
<path d="M30 9.375V23.125C30 26.9162 26.9162 30 23.125 30H6.875C3.73625 30 0.99875 27.8788 0.21625 24.8425C-0.0425 23.84 0.56125 22.8175 1.565 22.5588C2.57 22.2988 3.59 22.905 3.84875 23.9075C4.20375 25.2875 5.44875 26.25 6.875 26.25H23.125C24.8475 26.25 26.25 24.8475 26.25 23.125V11.25H3.75V11.875C3.75 12.9112 2.91125 13.75 1.875 13.75C0.83875 13.75 0 12.9112 0 11.875V9.375C0 5.58375 3.08375 2.5 6.875 2.5H7.5V1.875C7.5 0.83875 8.33875 0 9.375 0C10.4112 0 11.25 0.83875 11.25 1.875V2.5H18.75V1.875C18.75 0.83875 19.5888 0 20.625 0C21.6612 0 22.5 0.83875 22.5 1.875V2.5H23.125C26.9162 2.5 30 5.58375 30 9.375ZM10.8175 22.81L14.6463 18.9813C15.1187 18.5088 15.1187 17.7425 14.6463 17.27L10.8175 13.4413C10.055 12.6788 8.75125 13.2187 8.75125 14.2975V16.2513H1.875C0.83875 16.2513 0 17.09 0 18.1263C0 19.1625 0.83875 20.0012 1.875 20.0012H8.75125V21.955C8.75125 23.0337 10.055 23.5738 10.8175 22.8113V22.81Z" fill="#A5A5A5"/>
</g>
<defs>
<clipPath id="clip0_20_587">
<rect width="30" height="30" fill="white"/>
</clipPath>
</defs>
</svg>
