<svg width="30" height="30" viewBox="0 0 30 30" fill="none" xmlns="http://www.w3.org/2000/svg">
<g clip-path="url(#clip0_20_593)">
<path d="M13.75 11.8749V16.2499C13.75 18.6549 12.0663 20.7424 9.7475 21.2124C9.62125 21.2386 9.49625 21.2499 9.3725 21.2499C8.49875 21.2499 7.7175 20.6374 7.53625 19.7474C7.33 18.7324 7.98625 17.7424 9.00125 17.5374C9.56125 17.4236 9.99875 16.8574 9.99875 16.2499H9.37375C8.33875 16.2499 7.49875 15.4099 7.49875 14.3749V12.4999C7.49875 11.1186 8.6175 9.9999 9.99875 9.9999H11.8738C12.9088 9.9999 13.7488 10.8399 13.7488 11.8749H13.75ZM20.625 9.9999H18.75C17.3688 9.9999 16.25 11.1186 16.25 12.4999V14.3749C16.25 15.4099 17.09 16.2499 18.125 16.2499H18.75C18.75 16.8574 18.3113 17.4236 17.7525 17.5374C16.7375 17.7424 16.0813 18.7324 16.2875 19.7474C16.4675 20.6374 17.25 21.2499 18.1225 21.2499C18.2475 21.2499 18.3713 21.2374 18.4975 21.2124C20.8163 20.7424 22.5 18.6549 22.5 16.2499V11.8749C22.5 10.8399 21.66 9.9999 20.625 9.9999ZM30 15.4049V23.3511C30 27.0174 27.0175 29.9986 23.3525 29.9986H16.2938C7.57625 29.9999 0.587502 24.0099 0.0362523 16.0661C-0.263748 11.7224 1.32 7.47115 4.385 4.40115C7.45125 1.3324 11.7063 -0.273853 16.0438 0.0361472C23.87 0.566147 30 7.3174 30 15.4049ZM26.25 15.4049C26.25 9.2824 21.655 4.1749 15.79 3.77615C15.5325 3.75865 15.275 3.7499 15.0188 3.7499C12.0288 3.7499 9.1575 4.92865 7.04 7.0499C4.74125 9.3524 3.5525 12.5436 3.77875 15.8061C4.1975 21.8574 9.46125 26.2486 16.2938 26.2486H23.3525C24.95 26.2486 26.25 24.9486 26.25 23.3511V15.4049Z" fill="#A5A5A5"/>
</g>
<defs>
<clipPath id="clip0_20_593">
<rect width="30" height="30" fill="white"/>
</clipPath>
</defs>
</svg>
