<svg width="24" height="24" viewBox="0 0 30 30" fill="none" xmlns="http://www.w3.org/2000/svg">
<path d="M23.8263 9.81742C23.6521 9.64318 23.4454 9.50497 23.2178 9.41066C22.9903 9.31636 22.7463 9.26782 22.5 9.26782C22.2537 9.26782 22.0098 9.31636 21.7822 9.41066C21.5546 9.50497 21.3479 9.64318 21.1738 9.81742L15.4413 15.5487C15.3241 15.6658 15.1651 15.7317 14.9994 15.7317C14.8337 15.7317 14.6747 15.6658 14.5575 15.5487L8.82626 9.81742C8.47468 9.46568 7.99777 9.26801 7.50045 9.26789C7.00312 9.26777 6.52612 9.46522 6.17438 9.8168C5.82264 10.1684 5.62496 10.6453 5.62485 11.1426C5.62473 11.6399 5.82218 12.1169 6.17376 12.4687L11.9063 18.2012C12.3125 18.6075 12.7948 18.9298 13.3257 19.1497C13.8565 19.3696 14.4254 19.4827 15 19.4827C15.5746 19.4827 16.1435 19.3696 16.6743 19.1497C17.2052 18.9298 17.6875 18.6075 18.0938 18.2012L23.8263 12.4687C24.1778 12.1171 24.3752 11.6402 24.3752 11.143C24.3752 10.6459 24.1778 10.169 23.8263 9.81742Z" fill="#A5A5A5"/>
</svg>
