<svg width="30" height="30" viewBox="0 0 30 30" fill="none" xmlns="http://www.w3.org/2000/svg">
<g clip-path="url(#clip0_20_579)">
<path d="M8.56499 29.2974C7.61099 29.2931 6.68285 28.9868 5.91374 28.4224C5.12775 27.8695 4.54125 27.0776 4.24148 26.1645C3.94172 25.2515 3.9447 24.2661 4.24999 23.3549L5.71249 18.8311L1.86249 16.0161C1.09054 15.4521 0.51676 14.6584 0.223239 13.7486C-0.0702812 12.8387 -0.0685013 11.8593 0.228324 10.9505C0.52515 10.0418 1.10181 9.25013 1.8758 8.68894C2.64979 8.12775 3.58145 7.82575 4.53749 7.82614H9.24999L10.6812 3.36364C10.975 2.44981 11.5512 1.65279 12.3268 1.08736C13.1025 0.521936 14.0376 0.217285 14.9975 0.217285C15.9574 0.217285 16.8925 0.521936 17.6681 1.08736C18.4438 1.65279 19.02 2.44981 19.3137 3.36364L20.75 7.82614H25.4625C26.4184 7.82601 27.3499 8.12821 28.1237 8.68949C28.8975 9.25078 29.4739 10.0424 29.7706 10.9511C30.0673 11.8599 30.0689 12.8391 29.7754 13.7489C29.4818 14.6586 28.9081 15.4522 28.1362 16.0161L24.2875 18.8311L25.75 23.3549C26.0449 24.2674 26.0427 25.2499 25.7438 26.1611C25.445 27.0723 24.8648 27.8653 24.0867 28.4259C23.3087 28.9865 22.3729 29.2859 21.4139 29.281C20.455 29.2761 19.5223 28.9672 18.75 28.3986L15 25.6411L11.25 28.3999C10.4741 28.9786 9.53296 29.2932 8.56499 29.2974ZM4.53749 11.5761C4.37249 11.5761 4.21172 11.6283 4.07813 11.7251C3.94455 11.8219 3.84499 11.9585 3.79369 12.1153C3.74239 12.2722 3.74197 12.4412 3.79249 12.5982C3.84301 12.7553 3.94189 12.8924 4.07499 12.9899L9.01999 16.6036C9.33841 16.8365 9.57529 17.1638 9.69692 17.539C9.81856 17.9142 9.81876 18.3183 9.69749 18.6936L7.82249 24.5061C7.77046 24.6638 7.76992 24.8339 7.82097 24.9919C7.87201 25.1499 7.97198 25.2876 8.10642 25.385C8.24086 25.4824 8.4028 25.5345 8.56883 25.5338C8.73486 25.5332 8.89636 25.4797 9.02999 25.3811L13.8912 21.8049C14.2133 21.5679 14.6027 21.4401 15.0025 21.4401C15.4023 21.4401 15.7917 21.5679 16.1137 21.8049L20.975 25.3799C21.1084 25.4793 21.2702 25.5336 21.4366 25.5347C21.603 25.5358 21.7655 25.4837 21.9003 25.3861C22.035 25.2884 22.1351 25.1503 22.1859 24.9918C22.2366 24.8333 22.2354 24.6627 22.1825 24.5049L20.3075 18.6924C20.1862 18.317 20.1864 17.913 20.3081 17.5378C20.4297 17.1625 20.6666 16.8352 20.985 16.6024L25.9287 12.9886C26.0618 12.8912 26.1606 12.7542 26.2111 12.5973C26.2617 12.4403 26.2614 12.2714 26.2102 12.1147C26.1591 11.9579 26.0597 11.8213 25.9263 11.7244C25.793 11.6275 25.6324 11.5751 25.4675 11.5749H19.375C18.9779 11.5748 18.591 11.4486 18.2702 11.2145C17.9494 10.9804 17.7112 10.6505 17.59 10.2724L15.75 4.50864C15.6993 4.35089 15.5999 4.21329 15.466 4.11568C15.3321 4.01807 15.1707 3.96547 15.005 3.96547C14.8393 3.96547 14.6779 4.01807 14.544 4.11568C14.4101 4.21329 14.3107 4.35089 14.26 4.50864L12.4062 10.2736C12.2852 10.6512 12.0476 10.9806 11.7275 11.2147C11.4075 11.4487 11.0215 11.5752 10.625 11.5761H4.53749Z" fill="#A5A5A5"/>
</g>
<defs>
<clipPath id="clip0_20_579">
<rect width="30" height="30" fill="white"/>
</clipPath>
</defs>
</svg>
