<svg width="24" height="24" viewBox="0 0 30 30" fill="none" xmlns="http://www.w3.org/2000/svg">
<path d="M26.25 22.7141V15V7.2859C27.7065 6.77121 28.75 5.38312 28.75 3.75C28.75 1.67842 27.0716 0 25 0C22.9284 0 21.25 1.67842 21.25 3.75C21.25 5.38312 22.2934 6.77121 23.75 7.2859V13.75H16.25V7.2859C17.7066 6.77121 18.75 5.38312 18.75 3.75C18.75 1.67842 17.0716 0 15 0C12.9284 0 11.25 1.67842 11.25 3.75C11.25 5.38312 12.2934 6.77121 13.75 7.2859V13.75H6.25001V7.2859C7.70653 6.77121 8.75003 5.38312 8.75003 3.75C8.75003 1.67842 7.07161 0 5.00003 0C2.92845 0 1.25003 1.67842 1.25003 3.75C1.25003 5.38312 2.29347 6.77121 3.75005 7.2859V15C3.75005 15.6904 4.30968 16.25 5.00003 16.25H13.75V22.7141C12.2934 23.2288 11.25 24.6169 11.25 26.25C11.25 28.3216 12.9284 30 15 30C17.0716 30 18.75 28.3216 18.75 26.25C18.75 24.6169 17.7066 23.2288 16.25 22.7141V16.25H23.75V22.7141C22.2934 23.2288 21.25 24.6169 21.25 26.25C21.25 28.3216 22.9284 30 25 30C27.0715 30 28.75 28.3216 28.75 26.25C28.75 24.6169 27.7065 23.2288 26.25 22.7141ZM25 2.50002C25.6909 2.50002 26.25 3.05912 26.25 3.75C26.25 4.44088 25.6909 4.99998 25 4.99998C24.3091 4.99998 23.75 4.44088 23.75 3.75C23.75 3.05912 24.3091 2.50002 25 2.50002ZM15 2.50002C15.6909 2.50002 16.25 3.05912 16.25 3.75C16.25 4.44088 15.6909 4.99998 15 4.99998C14.3091 4.99998 13.75 4.44088 13.75 3.75C13.75 3.05912 14.3091 2.50002 15 2.50002ZM4.99997 2.50002C5.69085 2.50002 6.24995 3.05912 6.24995 3.75C6.24995 4.44088 5.69085 4.99998 4.99997 4.99998C4.30909 4.99998 3.74999 4.44088 3.74999 3.75C3.74999 3.05912 4.30909 2.50002 4.99997 2.50002ZM15 27.5C14.3091 27.5 13.75 26.9409 13.75 26.25C13.75 25.5591 14.3091 25 15 25C15.6909 25 16.25 25.5591 16.25 26.25C16.25 26.9409 15.6909 27.5 15 27.5ZM25 27.5C24.3091 27.5 23.75 26.9409 23.75 26.25C23.75 25.5591 24.3091 25 25 25C25.6909 25 26.25 25.5591 26.25 26.25C26.25 26.9409 25.6909 27.5 25 27.5Z" fill="#A5A5A5"/>
</svg>
