<svg width="24" height="24" viewBox="0 0 30 30" fill="none" xmlns="http://www.w3.org/2000/svg">
<g clip-path="url(#clip0_20_2959)">
<path d="M29.77 10.7362C29.1513 8.83625 27.46 7.60875 25.4625 7.60875H20.7475L19.3163 3.14625C18.7025 1.235 17.0075 0 15 0C12.9925 0 11.2975 1.235 10.6825 3.14875L9.2525 7.60875H4.5375C2.53875 7.60875 0.848754 8.835 0.230004 10.735C-0.389996 12.635 0.252504 14.6225 1.86375 15.8L5.71375 18.615L4.2525 23.1375C3.63625 25.0463 4.2875 27.0363 5.91375 28.2075C7.5125 29.36 9.65625 29.3537 11.2513 28.1825L15.0013 25.4238L18.7513 28.18C19.565 28.78 20.5 29.08 21.4363 29.08C22.3575 29.08 23.28 28.79 24.0863 28.2087C25.7138 27.0362 26.365 25.0462 25.7488 23.1387L24.2875 18.615L28.1363 15.8012C29.7488 14.6237 30.3913 12.6363 29.7713 10.7375L29.77 10.7362ZM25.9225 12.7725L20.9788 16.3875C20.3263 16.865 20.0538 17.7075 20.3013 18.4775L22.18 24.2913C22.2963 24.65 22.2 24.9437 21.8938 25.165C21.585 25.3862 21.2775 25.3838 20.9738 25.16L16.1113 21.5862C15.78 21.3437 15.3913 21.2212 15 21.2212V3.75C15.3788 3.75 15.63 3.9325 15.745 4.2925L17.5938 10.0563C17.8425 10.8325 18.5638 11.3587 19.38 11.3587H25.4638C25.84 11.3587 26.09 11.54 26.2075 11.8988C26.3238 12.2563 26.2288 12.55 25.9225 12.7725Z" fill="#A5A5A5"/>
</g>
<defs>
<clipPath id="clip0_20_2959">
<rect width="30" height="30" fill="white"/>
</clipPath>
</defs>
</svg>
