<svg width="24" height="24" viewBox="0 0 30 30" fill="none" xmlns="http://www.w3.org/2000/svg">
<g clip-path="url(#clip0_20_585)">
<path d="M15 0.0524902C11.6924 0.0561291 8.52134 1.37158 6.18241 3.71028C3.84349 6.04897 2.52771 9.21992 2.52374 12.5275C2.52374 15.74 5.01124 20.7675 9.91749 27.47C10.5016 28.2702 11.2663 28.9211 12.1495 29.3699C13.0327 29.8186 14.0093 30.0525 15 30.0525C15.9906 30.0525 16.9673 29.8186 17.8505 29.3699C18.7337 28.9211 19.4984 28.2702 20.0825 27.47C24.9887 20.7675 27.4762 15.74 27.4762 12.5275C27.4723 9.21992 26.1565 6.04897 23.8176 3.71028C21.4786 1.37158 18.3076 0.0561291 15 0.0524902ZM15 17.5C14.0111 17.5 13.0444 17.2067 12.2221 16.6573C11.3999 16.1079 10.759 15.327 10.3806 14.4134C10.0022 13.4998 9.90314 12.4944 10.0961 11.5245C10.289 10.5546 10.7652 9.66372 11.4645 8.96446C12.1637 8.26519 13.0546 7.78899 14.0245 7.59606C14.9944 7.40314 15.9998 7.50216 16.9134 7.88059C17.827 8.25903 18.6079 8.89989 19.1573 9.72214C19.7067 10.5444 20 11.5111 20 12.5C20 13.8261 19.4732 15.0978 18.5355 16.0355C17.5978 16.9732 16.3261 17.5 15 17.5Z" fill="#A5A5A5"/>
</g>
<defs>
<clipPath id="clip0_20_585">
<rect width="30" height="30" fill="white"/>
</clipPath>
</defs>
</svg>
