<svg width="118" height="24" viewBox="0 0 118 24" fill="none" xmlns="http://www.w3.org/2000/svg">
<path d="M12.44 23L7.768 14.52H6.456V23H0.984V0.535999H10.168C11.9387 0.535999 13.4427 0.845332 14.68 1.464C15.9387 2.08267 16.8773 2.936 17.496 4.024C18.1147 5.09067 18.424 6.28533 18.424 7.608C18.424 9.10133 17.9973 10.4347 17.144 11.608C16.312 12.7813 15.0747 13.6133 13.432 14.104L18.616 23H12.44ZM6.456 10.648H9.848C10.8507 10.648 11.5973 10.4027 12.088 9.912C12.6 9.42133 12.856 8.728 12.856 7.832C12.856 6.97867 12.6 6.30667 12.088 5.816C11.5973 5.32533 10.8507 5.08 9.848 5.08H6.456V10.648ZM38.691 13.784C38.691 14.296 38.659 14.8293 38.595 15.384H26.211C26.2963 16.4933 26.6483 17.3467 27.267 17.944C27.907 18.52 28.6857 18.808 29.603 18.808C30.9683 18.808 31.9177 18.232 32.451 17.08H38.275C37.9763 18.2533 37.4323 19.3093 36.643 20.248C35.875 21.1867 34.9043 21.9227 33.731 22.456C32.5577 22.9893 31.2457 23.256 29.795 23.256C28.0457 23.256 26.4883 22.8827 25.123 22.136C23.7577 21.3893 22.691 20.3227 21.923 18.936C21.155 17.5493 20.771 15.928 20.771 14.072C20.771 12.216 21.1443 10.5947 21.891 9.208C22.659 7.82133 23.7257 6.75467 25.091 6.008C26.4563 5.26133 28.0243 4.888 29.795 4.888C31.523 4.888 33.059 5.25067 34.403 5.976C35.747 6.70133 36.7923 7.736 37.539 9.08C38.307 10.424 38.691 11.992 38.691 13.784ZM33.091 12.344C33.091 11.4053 32.771 10.6587 32.131 10.104C31.491 9.54933 30.691 9.272 29.731 9.272C28.8137 9.272 28.035 9.53867 27.395 10.072C26.7763 10.6053 26.3923 11.3627 26.243 12.344H33.091ZM52.4578 4.952C54.5484 4.952 56.2124 5.63467 57.4498 7C58.7084 8.344 59.3378 10.2 59.3378 12.568V23H53.8978V13.304C53.8978 12.1093 53.5884 11.1813 52.9698 10.52C52.3511 9.85867 51.5191 9.528 50.4738 9.528C49.4284 9.528 48.5964 9.85867 47.9778 10.52C47.3591 11.1813 47.0498 12.1093 47.0498 13.304V23H41.5778V5.144H47.0498V7.512C47.6044 6.72267 48.3511 6.104 49.2898 5.656C50.2284 5.18667 51.2844 4.952 52.4578 4.952ZM73.0923 18.36V23H70.3083C68.3243 23 66.7776 22.52 65.6683 21.56C64.5589 20.5787 64.0043 18.9893 64.0043 16.792V9.688H61.8283V5.144H64.0043V0.792H69.4763V5.144H73.0603V9.688H69.4763V16.856C69.4763 17.3893 69.6043 17.7733 69.8603 18.008C70.1163 18.2427 70.5429 18.36 71.1403 18.36H73.0923Z" fill="#0077B6"/>
<path d="M78.7003 23.256C77.7403 23.256 76.9509 22.9787 76.3323 22.424C75.7349 21.848 75.4363 21.144 75.4363 20.312C75.4363 19.4587 75.7349 18.744 76.3323 18.168C76.9509 17.592 77.7403 17.304 78.7003 17.304C79.6389 17.304 80.4069 17.592 81.0043 18.168C81.6229 18.744 81.9323 19.4587 81.9323 20.312C81.9323 21.144 81.6229 21.848 81.0043 22.424C80.4069 22.9787 79.6389 23.256 78.7003 23.256ZM84.0835 14.04C84.0835 12.2053 84.4248 10.5947 85.1075 9.208C85.8115 7.82133 86.7608 6.75467 87.9555 6.008C89.1502 5.26133 90.4835 4.888 91.9555 4.888C93.2142 4.888 94.3128 5.144 95.2515 5.656C96.2115 6.168 96.9475 6.84 97.4595 7.672V5.144H102.932V23H97.4595V20.472C96.9262 21.304 96.1795 21.976 95.2195 22.488C94.2808 23 93.1822 23.256 91.9235 23.256C90.4728 23.256 89.1502 22.8827 87.9555 22.136C86.7608 21.368 85.8115 20.2907 85.1075 18.904C84.4248 17.496 84.0835 15.8747 84.0835 14.04ZM97.4595 14.072C97.4595 12.7067 97.0755 11.6293 96.3075 10.84C95.5608 10.0507 94.6435 9.656 93.5555 9.656C92.4675 9.656 91.5395 10.0507 90.7715 10.84C90.0248 11.608 89.6515 12.6747 89.6515 14.04C89.6515 15.4053 90.0248 16.4933 90.7715 17.304C91.5395 18.0933 92.4675 18.488 93.5555 18.488C94.6435 18.488 95.5608 18.0933 96.3075 17.304C97.0755 16.5147 97.4595 15.4373 97.4595 14.072ZM112.362 8.12C113.002 7.13867 113.802 6.37067 114.762 5.816C115.722 5.24 116.789 4.952 117.962 4.952V10.744H116.458C115.093 10.744 114.069 11.0427 113.386 11.64C112.704 12.216 112.362 13.24 112.362 14.712V23H106.89V5.144H112.362V8.12Z" fill="#48CAE4"/>
</svg>
