<svg width="24" height="24" viewBox="0 0 30 30" fill="none" xmlns="http://www.w3.org/2000/svg">
<g clip-path="url(#clip0_20_451)">
<path d="M23.125 3.75H22.3425C21.7863 1.595 19.8262 0 17.5 0H12.5C10.175 0 8.215 1.595 7.65875 3.75H6.875C3.08375 3.75 0 6.835 0 10.625V23.125C0 26.915 3.08375 30 6.875 30H23.125C26.915 30 30 26.915 30 23.125V10.625C30 6.835 26.915 3.75 23.125 3.75ZM26.25 23.125C26.25 24.8487 24.8487 26.25 23.125 26.25H22.5V11.875C22.5 10.84 21.66 10 20.625 10C19.59 10 18.75 10.84 18.75 11.875V26.25H11.25V11.875C11.25 10.84 10.4112 10 9.375 10C8.33875 10 7.5 10.84 7.5 11.875V26.25H6.875C5.1525 26.25 3.75 24.8487 3.75 23.125V10.625C3.75 8.90125 5.1525 7.5 6.875 7.5H23.125C24.8487 7.5 26.25 8.90125 26.25 10.625V23.125Z" fill="#A5A5A5"/>
</g>
<defs>
<clipPath id="clip0_20_451">
<rect width="30" height="30" fill="white"/>
</clipPath>
</defs>
</svg>
