<svg width="30" height="30" viewBox="0 0 30 30" fill="none" xmlns="http://www.w3.org/2000/svg">
<g clip-path="url(#clip0_20_571)">
<path d="M7.5 3.125C7.5 1.40125 8.90125 0 10.625 0C12.3488 0 13.75 1.40125 13.75 3.125C13.75 4.84875 12.3488 6.25 10.625 6.25C8.90125 6.25 7.5 4.84875 7.5 3.125ZM25.625 26.25H23.9138L22.32 20.6713C21.7863 18.805 20.0563 17.5 18.1138 17.5H13.125C12.78 17.5 12.5 17.2188 12.5 16.875V15H19.375C20.4113 15 21.25 14.16 21.25 13.125C21.25 12.09 20.4113 11.25 19.375 11.25H12.5V9.375C12.5 8.34 11.6613 7.5 10.625 7.5C9.58875 7.5 8.75 8.34 8.75 9.375V16.875C8.75 19.2875 10.7125 21.25 13.125 21.25H18.1138C18.3913 21.25 18.6388 21.4363 18.715 21.7025L20.4375 27.7338C20.82 29.0675 22.055 29.9988 23.4425 29.9988H25.625C26.6613 29.9988 27.5 29.1588 27.5 28.1238C27.5 27.0888 26.6613 26.25 25.625 26.25ZM15.625 23.75H13.125C9.33375 23.75 6.25 20.665 6.25 16.875V9.375C6.25 8.34 5.41125 7.5 4.375 7.5C3.33875 7.5 2.5 8.34 2.5 9.375V16.875C2.5 22.7338 7.26625 27.5 13.125 27.5H15.625C16.6613 27.5 17.5 26.66 17.5 25.625C17.5 24.59 16.6613 23.75 15.625 23.75Z" fill="#A5A5A5"/>
</g>
<defs>
<clipPath id="clip0_20_571">
<rect width="30" height="30" fill="white"/>
</clipPath>
</defs>
</svg>
