<svg width="20" height="20" viewBox="0 0 20 20" fill="none" xmlns="http://www.w3.org/2000/svg">
<path d="M15.4167 2.5H14.895C14.5242 1.06333 13.2175 0 11.6667 0H8.33333C6.78333 0 5.47667 1.06333 5.10583 2.5H4.58333C2.05583 2.5 0 4.55667 0 7.08333V15.4167C0 17.9433 2.05583 20 4.58333 20H15.4167C17.9433 20 20 17.9433 20 15.4167V7.08333C20 4.55667 17.9433 2.5 15.4167 2.5ZM17.5 15.4167C17.5 16.5658 16.5658 17.5 15.4167 17.5H15V7.91667C15 7.22667 14.44 6.66667 13.75 6.66667C13.06 6.66667 12.5 7.22667 12.5 7.91667V17.5H7.5V7.91667C7.5 7.22667 6.94083 6.66667 6.25 6.66667C5.55917 6.66667 5 7.22667 5 7.91667V17.5H4.58333C3.435 17.5 2.5 16.5658 2.5 15.4167V7.08333C2.5 5.93417 3.435 5 4.58333 5H15.4167C16.5658 5 17.5 5.93417 17.5 7.08333V15.4167Z" fill="#FAFAFA"/>
</svg>
