<svg width="16" height="16" viewBox="0 0 16 16" fill="none" xmlns="http://www.w3.org/2000/svg">
<path d="M0.879419 8.39644L3.25406 10.1307L2.35223 12.9236C2.20649 13.3568 2.20464 13.8254 2.34697 14.2597C2.48929 14.694 2.76815 15.0707 3.142 15.3336C3.50943 15.6049 3.9547 15.7503 4.41146 15.748C4.86822 15.7457 5.31202 15.5959 5.67672 15.3209L7.99867 13.612L10.3213 15.3189C10.688 15.5887 11.1309 15.7352 11.5862 15.7374C12.0415 15.7397 12.4858 15.5975 12.8552 15.3313C13.2246 15.0651 13.5 14.6886 13.642 14.256C13.7839 13.8234 13.785 13.3569 13.6451 12.9236L12.7433 10.1307L15.1179 8.39644C15.4842 8.12863 15.7565 7.75192 15.8959 7.32011C16.0353 6.8883 16.0347 6.42348 15.8941 5.99204C15.7536 5.56061 15.4803 5.18462 15.1133 4.9178C14.7462 4.65097 14.3043 4.50695 13.8505 4.5063H10.9336L10.0485 1.74745C9.90926 1.31318 9.63574 0.934346 9.26734 0.665566C8.89894 0.396786 8.45469 0.251953 7.99867 0.251953C7.54264 0.251953 7.09839 0.396786 6.72999 0.665566C6.36159 0.934346 6.08807 1.31318 5.94887 1.74745L5.06372 4.5063H2.14945C1.6957 4.50695 1.25375 4.65097 0.886743 4.9178C0.519734 5.18462 0.246432 5.56061 0.105875 5.99204C-0.0346818 6.42348 -0.0353039 6.8883 0.104098 7.32011C0.243499 7.75192 0.515793 8.12863 0.882087 8.39644H0.879419Z" fill="#FAFAFA"/>
</svg>
