<svg width="20" height="20" viewBox="0 0 20 20" fill="none" xmlns="http://www.w3.org/2000/svg">
<path d="M4 2.08342C4 0.934206 5.121 0 6.5 0C7.879 0 9 0.934206 9 2.08342C9 3.23263 7.879 4.16684 6.5 4.16684C5.121 4.16684 4 3.23263 4 2.08342ZM18.5 17.5007H17.131L15.856 13.7814C15.429 12.5372 14.045 11.6672 12.491 11.6672H8.5C8.224 11.6672 8 11.4796 8 11.2505V10.0004H13.5C14.329 10.0004 15 9.44039 15 8.75036C15 8.06034 14.329 7.50031 13.5 7.50031H8V6.25026C8 5.56023 7.329 5.00021 6.5 5.00021C5.671 5.00021 5 5.56023 5 6.25026V11.2505C5 12.8589 6.57 14.1673 8.5 14.1673H12.491C12.713 14.1673 12.911 14.2914 12.972 14.4689L14.35 18.4899C14.656 19.3791 15.644 20 16.754 20H18.5C19.329 20 20 19.44 20 18.7499C20 18.0599 19.329 17.5007 18.5 17.5007ZM10.5 15.834H8.5C5.467 15.834 3 13.7772 3 11.2505V6.25026C3 5.56023 2.329 5.00021 1.5 5.00021C0.671 5.00021 0 5.56023 0 6.25026V11.2505C0 15.1565 3.813 18.3341 8.5 18.3341H10.5C11.329 18.3341 12 17.7741 12 17.084C12 16.394 11.329 15.834 10.5 15.834Z" fill="#FAFAFA"/>
</svg>
