<svg width="20" height="20" viewBox="0 0 20 20" fill="none" xmlns="http://www.w3.org/2000/svg">
<g clip-path="url(#clip0_94_863)">
<path d="M17.5001 15.1427V10V4.85727C18.4712 4.51414 19.1668 3.58875 19.1668 2.5C19.1668 1.11895 18.0479 0 16.6668 0C15.2858 0 14.1668 1.11895 14.1668 2.5C14.1668 3.58875 14.8624 4.51414 15.8335 4.85727V9.16668H10.8335V4.85727C11.8045 4.51414 12.5001 3.58875 12.5001 2.5C12.5001 1.11895 11.3812 0 10.0001 0C8.61908 0 7.50014 1.11895 7.50014 2.5C7.50014 3.58875 8.19576 4.51414 9.16682 4.85727V9.16668H4.16682V4.85727C5.13783 4.51414 5.8335 3.58875 5.8335 2.5C5.8335 1.11895 4.71455 0 3.3335 0C1.95244 0 0.833496 1.11895 0.833496 2.5C0.833496 3.58875 1.52912 4.51414 2.50018 4.85727V10C2.50018 10.4602 2.87326 10.8333 3.3335 10.8333H9.16682V15.1427C8.19576 15.4859 7.50014 16.4112 7.50014 17.5C7.50014 18.8811 8.61908 20 10.0001 20C11.3812 20 12.5001 18.8811 12.5001 17.5C12.5001 16.4112 11.8045 15.4859 10.8335 15.1427V10.8333H15.8335V15.1427C14.8624 15.4859 14.1668 16.4112 14.1668 17.5C14.1668 18.8811 15.2857 20 16.6668 20C18.0478 20 19.1668 18.8811 19.1668 17.5C19.1668 16.4112 18.4712 15.4859 17.5001 15.1427ZM16.6668 1.66668C17.1274 1.66668 17.5001 2.03941 17.5001 2.5C17.5001 2.96059 17.1274 3.33332 16.6668 3.33332C16.2062 3.33332 15.8335 2.96059 15.8335 2.5C15.8335 2.03941 16.2062 1.66668 16.6668 1.66668ZM10.0001 1.66668C10.4607 1.66668 10.8335 2.03941 10.8335 2.5C10.8335 2.96059 10.4607 3.33332 10.0001 3.33332C9.53955 3.33332 9.16682 2.96059 9.16682 2.5C9.16682 2.03941 9.53955 1.66668 10.0001 1.66668ZM3.33346 1.66668C3.79404 1.66668 4.16678 2.03941 4.16678 2.5C4.16678 2.96059 3.79404 3.33332 3.33346 3.33332C2.87287 3.33332 2.50014 2.96059 2.50014 2.5C2.50014 2.03941 2.87287 1.66668 3.33346 1.66668ZM10.0001 18.3333C9.53955 18.3333 9.16682 17.9606 9.16682 17.5C9.16682 17.0394 9.53955 16.6667 10.0001 16.6667C10.4607 16.6667 10.8335 17.0394 10.8335 17.5C10.8335 17.9606 10.4607 18.3333 10.0001 18.3333ZM16.6668 18.3333C16.2062 18.3333 15.8335 17.9606 15.8335 17.5C15.8335 17.0394 16.2062 16.6667 16.6668 16.6667C17.1274 16.6667 17.5001 17.0394 17.5001 17.5C17.5001 17.9606 17.1274 18.3333 16.6668 18.3333Z" fill="#FAFAFA"/>
</g>
<defs>
<clipPath id="clip0_94_863">
<rect width="20" height="20" fill="white"/>
</clipPath>
</defs>
</svg>
